<svg width="138" height="52" viewBox="0 0 138 52" fill="none" xmlns="http://www.w3.org/2000/svg">
<g clip-path="url(#clip0)">
<path d="M71.2467 16.9296L77.8122 16.5064C77.962 17.5769 78.2366 18.3735 78.686 18.9461C79.4099 19.8424 80.4085 20.2905 81.7316 20.2905C82.7051 20.2905 83.479 20.0665 84.0033 19.5934C84.5025 19.22 84.8021 18.6225 84.8021 18.0001C84.8021 17.4026 84.5275 16.83 84.0532 16.4566C83.5539 16.0084 82.3806 15.5603 80.5333 15.162C77.5127 14.4898 75.3408 13.5935 74.0677 12.4483C72.7945 11.3778 72.0705 9.80938 72.1205 8.14136C72.1205 6.99616 72.47 5.85095 73.119 4.90491C73.8679 3.83439 74.8915 2.98793 76.1147 2.51491C77.4378 1.9423 79.2851 1.64355 81.6067 1.64355C84.4526 1.64355 86.6245 2.16637 88.1223 3.23689C89.6201 4.28251 90.5188 5.97543 90.7934 8.29074L84.3028 8.66417C84.1281 7.66834 83.7786 6.94636 83.2044 6.47334C82.6302 6.00032 81.8813 5.77626 80.9077 5.77626C80.1089 5.77626 79.5098 5.95053 79.1104 6.27418C78.7359 6.57293 78.4863 7.02105 78.5112 7.51897C78.5112 7.8924 78.7109 8.24095 79.0105 8.46501C79.335 8.76376 80.1089 9.03761 81.3321 9.28657C84.3528 9.93386 86.4996 10.5812 87.8227 11.2533C89.1458 11.9255 90.0944 12.7471 90.6686 13.718C91.2677 14.7139 91.5673 15.8591 91.5423 17.0292C91.5423 18.4233 91.1429 19.8175 90.3441 20.9876C89.5203 22.2075 88.3719 23.1535 87.0239 23.7261C85.6009 24.3485 83.8036 24.6722 81.6567 24.6722C77.8622 24.6722 75.241 23.9502 73.7681 22.4814C72.2952 21.0125 71.4215 19.1702 71.2467 16.9296ZM1.57272 24.2987V2.04189H13.081C15.203 2.04189 16.8506 2.21616 17.974 2.5896C19.0724 2.93814 20.0459 3.66012 20.695 4.63105C21.419 5.70157 21.7685 6.94636 21.7435 8.24095C21.8184 10.4318 20.695 12.523 18.7728 13.6184C18.0239 14.0417 17.2001 14.3404 16.3513 14.4898C16.9754 14.6641 17.5995 14.9628 18.1487 15.3114C18.5731 15.6599 18.9226 16.0582 19.2471 16.4815C19.6216 16.9047 19.9461 17.3777 20.2207 17.8756L23.5658 24.3236H15.7272L12.0326 17.4773C11.5582 16.6059 11.1588 16.0333 10.7844 15.7595C10.2851 15.4109 9.68596 15.2367 9.08683 15.2367H8.4877V24.2739H1.57272V24.2987ZM8.4877 11.0542H11.4085C12.0326 11.0044 12.6317 10.9048 13.2308 10.7554C13.6802 10.6807 14.0796 10.4318 14.3542 10.0583C15.0282 9.16209 14.9284 7.8924 14.1046 7.12063C13.6552 6.7472 12.7815 6.54803 11.5333 6.54803H8.4877V11.0542ZM0 43.3689L6.56549 42.9457C6.71527 44.0162 6.98987 44.8129 7.43922 45.3855C8.13821 46.2817 9.16172 46.7548 10.4848 46.7548C11.4584 46.7548 12.2323 46.5307 12.7565 46.0577C13.2558 45.6594 13.5554 45.0868 13.5554 44.4644C13.5554 43.8669 13.2808 43.2943 12.8064 42.9208C12.3072 42.4727 11.1339 42.0246 9.26158 41.6262C6.24095 40.954 4.0691 40.0578 2.79595 38.9126C1.52279 37.8421 0.798842 36.2736 0.84877 34.6056C0.84877 33.4604 1.19826 32.3152 1.84732 31.3692C2.59624 30.2986 3.61975 29.4522 4.84298 28.9792C6.16606 28.4066 8.01339 28.1078 10.335 28.1078C13.1809 28.1078 15.3527 28.6306 16.8506 29.7011C18.3484 30.7717 19.2221 32.4397 19.4967 34.755L13.0062 35.1284C12.8314 34.1326 12.4819 33.4106 11.9077 32.9376C11.3585 32.4646 10.5847 32.2405 9.61107 32.2654C8.81223 32.2654 8.2131 32.4397 7.81368 32.7882C7.41425 33.087 7.18958 33.5351 7.21454 34.033C7.21454 34.4064 7.41425 34.755 7.71382 34.979C8.03835 35.2778 8.81223 35.5517 10.0355 35.8006C13.0561 36.4479 15.203 37.0952 16.526 37.7674C17.8491 38.4396 18.7978 39.2611 19.3719 40.2321C19.9711 41.2279 20.2706 42.3731 20.2706 43.5183C20.2706 44.9125 19.8462 46.2818 19.0724 47.4519C18.2486 48.6717 17.1002 49.6178 15.7522 50.1904C14.3292 50.8128 12.5318 51.1364 10.3849 51.1364C6.59045 51.1364 3.96925 50.4145 2.49638 48.9456C1.02352 47.4519 0.199711 45.6096 0 43.3689H0Z" fill="white"/>
<path d="M33.201 41.6258L39.2422 43.4432C38.9177 44.9619 38.2437 46.4058 37.32 47.6755C36.4712 48.7958 35.3479 49.6672 34.0747 50.2398C32.7766 50.8124 31.129 51.1112 29.1319 51.1112C26.7104 51.1112 24.7133 50.7626 23.1905 50.0655C21.6427 49.3684 20.3196 48.1237 19.1963 46.3561C18.0729 44.5884 17.5237 42.3229 17.5237 39.5595C17.5237 35.8749 18.4973 33.0368 20.4694 31.07C22.4416 29.1033 25.2125 28.1074 28.8073 28.1074C31.6282 28.1074 33.8251 28.68 35.4477 29.8003C37.0454 30.9455 38.2437 32.6883 39.0425 35.0285L32.9513 36.3728C32.8015 35.85 32.5769 35.3272 32.2773 34.8791C31.9028 34.3563 31.4285 33.9579 30.8544 33.6592C30.2802 33.3604 29.6311 33.236 28.9821 33.236C27.4094 33.236 26.2111 33.8584 25.3873 35.128C24.7632 36.0492 24.4387 37.518 24.4387 39.5097C24.4387 41.9744 24.8131 43.6673 25.562 44.5885C26.3109 45.5096 27.3594 45.9577 28.7324 45.9577C30.0555 45.9577 31.0541 45.5843 31.7281 44.8623C32.4021 44.0905 32.9014 43.02 33.201 41.6258ZM47.3055 28.4809H54.1955V36.2732H61.7346V28.4809H68.6746V50.7377H61.7346V41.7254H54.1955V50.7377H47.3055V28.4809Z" fill="white"/>
<path d="M67.7269 39.6098C67.7269 35.975 68.7504 33.1369 70.7725 31.1203C72.7946 29.1037 75.6405 28.083 79.2602 28.083C82.9798 28.083 85.8257 29.0788 87.8478 31.0705C89.8698 33.0622 90.8684 35.8505 90.8684 39.4355C90.8684 42.0496 90.4191 44.1657 89.5453 45.8337C88.6966 47.4768 87.3735 48.8212 85.7508 49.7175C84.0782 50.6386 82.0062 51.1116 79.5348 51.1116C77.0135 51.1116 74.9415 50.7133 73.2939 49.9166C71.5963 49.0702 70.1984 47.7507 69.2747 46.1325C68.2512 44.3898 67.7269 42.2238 67.7269 39.6098ZM74.6169 39.6347C74.6169 41.8753 75.0413 43.4935 75.8651 44.4893C76.6889 45.4603 77.8373 45.9582 79.2852 45.9582C80.7581 45.9582 81.9064 45.4852 82.7302 44.5142C83.554 43.5433 83.9534 41.8255 83.9534 39.3359C83.9534 37.2447 83.529 35.7011 82.6803 34.7551C81.8315 33.7841 80.6832 33.3111 79.2353 33.3111C77.9621 33.2613 76.7389 33.809 75.8901 34.78C75.0413 35.7509 74.6169 37.3691 74.6169 39.6347ZM97.9332 39.6098C97.9332 35.975 98.9567 33.1369 100.979 31.1203C103.001 29.1037 105.847 28.083 109.466 28.083C113.186 28.083 116.057 29.0788 118.054 31.0705C120.051 33.0622 121.075 35.8505 121.075 39.4355C121.075 42.0496 120.625 44.1657 119.752 45.8337C118.903 47.4768 117.58 48.8212 115.957 49.7175C114.284 50.6386 112.212 51.1116 109.741 51.1116C107.22 51.1116 105.148 50.7133 103.5 49.9166C101.803 49.0702 100.405 47.7507 99.4809 46.1325C98.4574 44.3898 97.9332 42.2238 97.9332 39.6098ZM104.823 39.6347C104.823 41.8753 105.248 43.4935 106.071 44.4893C106.895 45.4603 108.044 45.9582 109.491 45.9582C110.964 45.9582 112.113 45.4852 112.936 44.5142C113.76 43.5433 114.16 41.8255 114.16 39.3359C114.16 37.2447 113.735 35.7011 112.886 34.7551C112.038 33.7841 110.889 33.3111 109.441 33.3111C108.168 33.2613 106.92 33.809 106.096 34.78C105.248 35.7509 104.823 37.3691 104.823 39.6347Z" fill="white"/>
<path d="M120.35 28.4805H127.24V45.2602H138V50.7373H120.325V28.4805H120.35Z" fill="white"/>
<path d="M112.722 27.2003C119.653 21.9794 121.792 13.1321 117.501 7.43936C113.209 1.74658 104.111 1.36401 97.1802 6.58488C90.2493 11.8057 88.1098 20.653 92.4015 26.3458C96.6933 32.0386 105.791 32.4211 112.722 27.2003Z" stroke="white" stroke-width="0.180618" stroke-miterlimit="10"/>
<path d="M112.722 27.2003C119.653 21.9794 121.792 13.1321 117.501 7.43936C113.209 1.74658 104.111 1.36401 97.1802 6.58488C90.2493 11.8057 88.1098 20.653 92.4015 26.3458C96.6933 32.0386 105.791 32.4211 112.722 27.2003Z" stroke="white" stroke-width="0.180618" stroke-miterlimit="10"/>
<path d="M97.9569 15.261L100.453 13.5183L103.524 17.8751C104.048 18.5722 104.448 19.319 104.747 20.1406C104.922 20.763 104.872 21.4352 104.622 22.0327C104.298 22.7795 103.773 23.4019 103.075 23.8501C102.251 24.4227 101.552 24.7463 100.953 24.8459C100.378 24.9455 99.7793 24.8459 99.2301 24.5969C98.6309 24.2982 98.1067 23.875 97.7073 23.3273L99.8542 21.3356C100.029 21.6094 100.254 21.8584 100.503 22.0576C100.678 22.182 100.878 22.2567 101.102 22.2567C101.277 22.2567 101.452 22.182 101.577 22.0825C101.826 21.9331 102.001 21.6343 101.976 21.3356C101.901 20.9124 101.726 20.4891 101.452 20.1655L97.9569 15.261ZM105.446 18.0244L107.718 16.2319C107.967 16.5307 108.292 16.7548 108.641 16.8792C109.141 17.0286 109.665 16.929 110.089 16.6054C110.389 16.4062 110.639 16.1324 110.738 15.7838C110.888 15.3357 110.639 14.8378 110.189 14.6884C110.114 14.6635 110.039 14.6386 109.965 14.6386C109.665 14.6137 109.141 14.7382 108.367 15.0618C107.094 15.5847 106.095 15.7838 105.346 15.7091C104.622 15.6344 103.948 15.261 103.549 14.6386C103.249 14.2154 103.099 13.7175 103.075 13.2196C103.075 12.6469 103.224 12.0743 103.549 11.6013C104.023 10.9291 104.597 10.3565 105.296 9.90841C106.345 9.18643 107.268 8.83789 108.067 8.83789C108.866 8.83789 109.615 9.21133 110.314 9.9831L108.067 11.7507C107.618 11.1781 106.769 11.0536 106.195 11.5017L106.12 11.5764C105.87 11.7258 105.696 11.9499 105.596 12.2237C105.521 12.4229 105.571 12.647 105.696 12.8212C105.796 12.9457 105.945 13.0453 106.12 13.0453C106.32 13.0702 106.669 12.9706 107.169 12.7465C108.417 12.2237 109.365 11.925 110.014 11.8254C110.564 11.7258 111.138 11.7756 111.662 11.9997C112.136 12.1988 112.536 12.5474 112.81 12.9706C113.16 13.4685 113.36 14.066 113.385 14.6884C113.41 15.3357 113.235 15.9581 112.885 16.5058C112.436 17.178 111.862 17.7506 111.188 18.1987C109.815 19.1448 108.691 19.5431 107.793 19.3937C106.819 19.2443 106.02 18.7464 105.446 18.0244Z" fill="white"/>
</g>
<defs>
<clipPath id="clip0">
<rect width="138" height="51.1111" fill="white"/>
</clipPath>
</defs>
</svg>
